<svg xmlns="http://www.w3.org/2000/svg" version="1.1" xmlns:xlink="http://www.w3.org/1999/xlink" xmlns:svgjs="http://svgjs.dev/svgjs" width="1500" height="1500" viewBox="0 0 1500 1500"><rect width="1500" height="1500" fill="#ffffff"></rect><g transform="matrix(0.6666666666666666,0,0,0.6666666666666666,250,246.54804270462665)"><svg viewBox="0 0 280 281" data-background-color="#ffffff" preserveAspectRatio="xMidYMid meet" height="1505" width="1500" xmlns="http://www.w3.org/2000/svg" xmlns:xlink="http://www.w3.org/1999/xlink"><g id="tight-bounds" transform="matrix(1,0,0,1,0,0.49999999999994316)"><svg viewBox="0 0 280 280" height="280" width="280"><g><svg viewBox="0 0 280 280" height="280" width="280"><g><svg viewBox="0 0 280 280" height="280" width="280"><g id="textblocktransform"><svg viewBox="0 0 280 280" height="280" width="280" id="textblock"><g><svg viewBox="0 0 280 280" height="280" width="280"><g transform="matrix(1,0,0,1,90.50252531694167,90.50474009292168)"><svg viewBox="0 0 98.99494936611666 98.99051981415666" height="98.99051981415666" width="98.99494936611666"><g id="icon-0"><svg xmlns="http://www.w3.org/2000/svg" xmlns:xlink="http://www.w3.org/1999/xlink" version="1.1" x="0" y="0" viewBox="5.303 5.305 89.395 89.39099999999999" enable-background="new 0 0 100 100" xml:space="preserve" height="98.99051981415666" width="98.99494936611666" class="icon-jxe-0" data-fill-palette-color="accent" id="jxe-0"><g fill="#222e50" data-fill-palette-color="accent"><path d="M39.405 33.079V48.402H42.49V51.489H48.556V48.402H51.641V33.079H48.556V29.992H42.49V33.079z" fill="#000000" data-fill-palette-color="accent"></path><path d="M67.176 33.08V48.403H70.261V51.489H76.327V48.403H79.413V33.08H76.327V29.993H70.261V33.08z" fill="#000000" data-fill-palette-color="accent"></path><path d="M5.303 36.166V66.922H8.39V73.094H11.476V76.18H14.563V82.352H17.649V85.439H23.82V88.525H26.907V91.611H36.166V94.696H63.836V91.61H73.094V88.524H76.178V85.438H82.352V82.351H85.438V76.18H88.524V73.094H91.61V66.922H94.698V36.166H91.61V29.993H88.524V23.822H85.438V20.736H82.352V17.649H79.264V14.563H76.178V11.476H73.094V8.392H63.836V5.305H36.166V8.392H26.907V11.477H23.82V14.564H20.736V17.65H17.649V20.736H14.563V23.823H11.476V29.994H8.39V36.167H5.303zM8.285 39.146H11.37V32.973H14.456V26.801H17.543L17.544 23.715H20.628V20.628H23.716V17.542H26.802V14.456H29.887L29.893 11.37H39.146L39.149 8.284H60.855V11.37H70.115V14.456H73.201V17.542H76.287V20.627H79.375V23.713H82.459V26.799H85.545V32.971H88.632V39.144H91.718V63.939H88.632V70.111H85.544V73.197H82.458V79.37H79.374V82.456H73.201V85.541H70.116V88.626H60.856V91.713H39.145V88.63H29.886V85.545H26.801V82.458H20.627V79.371H17.542V73.2H14.455V70.115H11.37V63.943H8.285z" fill="#000000" data-fill-palette-color="accent"></path><rect x="48.516" y="63.935" width="9.154" height="2.979" fill="#000000" data-fill-palette-color="accent"></rect></g></svg></g></svg></g><g id="text-0"><path d="M15.69 101.38v0c0.699 0.248 1.76 0.624 3.184 1.128 1.423 0.505 2.821 0.912 4.193 1.224 1.375 0.305 2.812 0.481 4.313 0.528 1.495 0.045 2.781-0.272 3.858-0.952 1.071-0.681 1.854-1.721 2.349-3.119v0c0.799-2.253 0.671-4.28-0.384-6.081-1.057-1.794-2.791-3.227-5.2-4.299v0l0.34-0.691c2.705 1.17 4.599 2.825 5.681 4.965 1.088 2.143 1.166 4.531 0.231 7.165v0c-1.219 3.439-3.531 5.63-6.936 6.573-3.405 0.943-7.024 0.735-10.856-0.623-3.833-1.359-6.751-3.521-8.756-6.488-2.005-2.966-2.407-6.144-1.205-9.533v0c0.427-1.205 1.103-2.388 2.028-3.55 0.923-1.156 1.426-1.852 1.51-2.089v0c0.277-0.78-0.016-1.401-0.879-1.861v0l0.172-0.487 9.438 3.346-0.229 0.646c-2.809-0.539-5.177-0.56-7.103-0.062-1.932 0.495-3.28 1.82-4.043 3.973v0c-0.905 2.553-0.436 4.687 1.408 6.402v0c1.577 1.438 3.873 2.733 6.886 3.885z" fill="#000000" data-fill-palette-color="primary"></path><path d="M49.833 71.128l1.804-2.169 0.496 0.413-6.048 7.27-0.497-0.413 1.811-2.176-21.71-18.063-1.944 2.336-0.489-0.406 0.572-0.688c1.444-1.736 2.589-3.402 3.435-4.998v0l10.851 9.028 0.159-0.191c-0.74-1.254-1.065-2.592-0.975-4.016 0.095-1.429 0.597-2.691 1.508-3.785v0c1.588-1.909 3.24-2.745 4.955-2.507 1.71 0.243 3.683 1.294 5.918 3.154v0l8.553 7.116 1.811-2.177 0.496 0.413-6.048 7.27-0.497-0.413 1.805-2.169-8.087-6.728c-2.479-2.063-4.268-3.237-5.367-3.522v0c-0.5-0.114-1.042-0.109-1.628 0.016-0.586 0.124-1.171 0.538-1.755 1.24-0.58 0.697-0.879 1.569-0.896 2.614-0.017 1.046 0.285 2.085 0.906 3.12v0c1.1 1.846 2.738 3.673 4.912 5.482v0z" fill="#000000" data-fill-palette-color="primary"></path><path d="M71.168 26.338v0c2.92-1.737 5.243-2.229 6.97-1.477 1.718 0.75 3.547 2.756 5.487 6.017v0l3.875 6.514c0.596 1.002 1.116 1.371 1.56 1.107v0c0.905-0.538 0.667-2.304-0.713-5.298v0l0.707-0.328c1.892 4.022 1.785 6.66-0.321 7.913v0c-0.615 0.366-1.217 0.428-1.808 0.185-0.594-0.248-1.094-0.609-1.5-1.084-0.397-0.473-0.829-1.102-1.297-1.887v0l-0.213 0.127c0.453 1.487 0.399 2.88-0.162 4.177-0.556 1.294-1.599 2.396-3.13 3.307-1.537 0.914-3.124 1.304-4.761 1.168-1.637-0.136-2.916-0.977-3.838-2.526v0c-0.684-1.15-0.923-2.302-0.716-3.458v0c0.437-2.387 3.083-5.025 7.938-7.912v0c0.268-0.159 0.549-0.327 0.845-0.503v0l-1.072-1.802c-1.151-1.935-2.348-3.196-3.591-3.782-1.252-0.588-2.691-0.398-4.319 0.57-1.628 0.968-2.625 2.012-2.991 3.132-0.37 1.114-0.343 2.027 0.08 2.739v0c0.132 0.222 0.303 0.27 0.514 0.145 0.211-0.125 0.261-0.306 0.152-0.542v0c-0.231-0.725 0.069-1.335 0.899-1.829v0c0.541-0.322 1.084-0.387 1.63-0.195 0.546 0.192 0.981 0.561 1.306 1.107 0.328 0.552 0.404 1.139 0.227 1.761-0.177 0.622-0.59 1.126-1.239 1.511-0.649 0.386-1.361 0.471-2.138 0.255-0.779-0.222-1.388-0.7-1.824-1.435v0c-0.816-1.372-0.857-2.75-0.125-4.133 0.739-1.387 1.928-2.569 3.568-3.544zM81.955 35.513v0l-1.468-2.467c-0.245 0.146-0.632 0.376-1.161 0.69-0.524 0.312-1.125 0.719-1.803 1.224-0.679 0.504-1.312 1.131-1.899 1.88v0c-1.236 1.498-1.278 3.215-0.126 5.15v0c0.701 1.178 1.545 1.955 2.531 2.332 0.992 0.373 2.112 0.188 3.359-0.553 1.252-0.745 1.903-1.899 1.951-3.462 0.052-1.557-0.409-3.155-1.384-4.794z" fill="#000000" data-fill-palette-color="primary"></path><path d="M115.231 10.784l-5.026 1.235 3.472 14.133c0.572 2.328 1.039 3.577 1.402 3.747v0c0.202 0.1 0.441 0.117 0.718 0.049v0c0.695-0.171 1.268-0.738 1.72-1.702 0.452-0.964 0.772-1.966 0.959-3.007v0l0.725 0.077c-0.2 1.461-0.634 2.751-1.3 3.869-0.666 1.118-1.578 1.82-2.736 2.105v0c-1.64 0.403-2.822 0.172-3.546-0.694-0.724-0.865-1.345-2.35-1.862-4.453v0l-3.247-13.216-2.952 0.725-0.154-0.627 0.289-0.071c3.184-0.782 4.674-3.085 4.471-6.909v0l0.54-0.133 1.347 5.48 5.026-1.235z" fill="#000000" data-fill-palette-color="primary"></path><path d="M157.709 29.571v0c-1.024-0.072-1.82-0.555-2.388-1.452-0.568-0.896-0.793-2.187-0.676-3.871v0l0.197-2.815c0.169-2.418-0.187-4.159-1.068-5.223-0.882-1.064-2.346-1.668-4.395-1.811v0l-3.082-0.215-0.937 13.408 3.547 0.248-0.048 0.684-11.098-0.777 0.047-0.683 3.112 0.217 1.845-26.38-3.112-0.217 0.048-0.684 10.286 0.719c4.301 0.301 7.171 0.986 8.61 2.056v0c0.626 0.449 1.139 1.079 1.541 1.891 0.401 0.818 0.563 1.782 0.484 2.892v0c-0.135 1.936-0.815 3.495-2.039 4.677-1.232 1.189-2.951 1.848-5.158 1.979v0l-0.015 0.218c2.616 0.183 4.3 0.928 5.052 2.236 0.751 1.314 1.022 3.477 0.811 6.489v0l-0.138 1.962c-0.072 1.031-0.049 1.743 0.07 2.136 0.112 0.393 0.346 0.602 0.703 0.627 0.357 0.025 0.747-0.233 1.17-0.774 0.423-0.541 0.803-1.375 1.14-2.5v0l0.752 0.222c-0.917 3.342-2.671 4.922-5.261 4.741zM149.079 13.701c2.392 0.167 4.069-0.18 5.033-1.042 0.957-0.863 1.521-2.526 1.693-4.99 0.172-2.464-0.235-4.086-1.223-4.866-0.987-0.786-2.733-1.267-5.237-1.441v0l-2.141-0.15-0.86 12.298z" fill="#000000" data-fill-palette-color="primary"></path><path d="M196.071 39.759c-2.327 1.14-4.844 1.103-7.55-0.112-2.707-1.215-4.407-3.071-5.101-5.568-0.691-2.503-0.394-5.186 0.892-8.05 1.286-2.864 3.092-4.866 5.419-6.006 2.33-1.146 4.848-1.112 7.555 0.104 2.707 1.215 4.405 3.074 5.096 5.577 0.694 2.497 0.398 5.177-0.888 8.04-1.286 2.864-3.094 4.869-5.423 6.015zM196.449 34.626c0.393-0.731 0.813-1.592 1.257-2.583 0.442-0.985 0.806-1.867 1.091-2.646 0.291-0.777 0.529-1.639 0.715-2.587 0.195-0.951 0.254-1.777 0.176-2.479-0.074-0.708-0.335-1.381-0.782-2.017-0.447-0.636-1.088-1.142-1.921-1.517-0.834-0.374-1.637-0.517-2.41-0.429-0.773 0.088-1.449 0.34-2.028 0.756-0.576 0.409-1.154 1.003-1.735 1.78-0.585 0.768-1.071 1.519-1.458 2.253-0.393 0.731-0.811 1.589-1.254 2.573-0.445 0.991-0.81 1.876-1.094 2.656-0.291 0.777-0.529 1.639-0.715 2.586-0.192 0.945-0.251 1.771-0.177 2.48 0.077 0.702 0.337 1.375 0.782 2.017 0.447 0.636 1.088 1.142 1.922 1.516 0.834 0.374 1.637 0.517 2.41 0.429 0.776-0.095 1.451-0.346 2.027-0.756 0.579-0.415 1.157-1.009 1.736-1.779 0.585-0.768 1.071-1.519 1.458-2.253z" fill="#000000" data-fill-palette-color="primary"></path><path d="M226.64 63.891c-2.572 0.312-4.937-0.55-7.094-2.588-2.157-2.037-3.153-4.349-2.987-6.935 0.17-2.591 1.333-5.027 3.488-7.309 2.156-2.282 4.52-3.579 7.092-3.891 2.577-0.317 4.944 0.543 7.101 2.58 2.157 2.037 3.15 4.351 2.981 6.943-0.165 2.586-1.326 5.02-3.482 7.302-2.156 2.282-4.522 3.581-7.099 3.898zM228.684 59.167c0.612-0.561 1.291-1.236 2.037-2.026 0.741-0.785 1.374-1.498 1.899-2.141 0.53-0.638 1.038-1.374 1.526-2.208 0.496-0.834 0.824-1.595 0.982-2.283 0.163-0.693 0.138-1.414-0.076-2.163-0.213-0.748-0.652-1.436-1.317-2.063-0.664-0.628-1.376-1.027-2.135-1.197-0.759-0.17-1.48-0.155-2.163 0.047-0.678 0.197-1.42 0.567-2.224 1.111-0.805 0.534-1.51 1.083-2.117 1.648-0.612 0.561-1.288 1.234-2.03 2.018-0.746 0.79-1.381 1.506-1.907 2.149-0.53 0.638-1.038 1.374-1.525 2.208-0.492 0.829-0.819 1.59-0.982 2.283-0.158 0.688-0.133 1.409 0.076 2.163 0.213 0.748 0.652 1.436 1.316 2.063 0.664 0.628 1.376 1.027 2.136 1.197 0.764 0.166 1.485 0.15 2.163-0.047 0.683-0.202 1.424-0.572 2.224-1.111 0.805-0.534 1.51-1.083 2.117-1.648z" fill="#000000" data-fill-palette-color="primary"></path><path d="M240.761 87.965l1.137 2.582-0.591 0.261-3.812-8.655 0.591-0.261 1.142 2.591 16.837-7.415-1.226-2.782 0.591-0.26 0.361 0.818c0.91 2.067 1.891 3.835 2.943 5.303v0l-3.918 1.726 0.1 0.227c1.452-0.104 2.787 0.184 4.005 0.863 1.218 0.679 2.114 1.67 2.689 2.973v0c1.369 3.109 0.783 5.564-1.761 7.365v0l0.104 0.236c1.452-0.104 2.787 0.184 4.006 0.863 1.218 0.679 2.114 1.67 2.688 2.973v0c0.988 2.243 0.994 4.031 0.018 5.365-0.969 1.332-2.824 2.601-5.563 3.807v0l-10.183 4.485 1.142 2.591-0.591 0.26-3.812-8.655 0.591-0.26 1.137 2.582 11.082-4.881c2.976-1.311 4.638-2.556 4.986-3.737v0c0.131-0.557 0.052-1.163-0.236-1.818v0c-1.54-3.497-5.653-3.773-12.338-0.829v0l-7.082 3.119 1.137 2.582-0.591 0.26-3.723-8.454 0.591-0.261 1.137 2.582 11.082-4.881c2.976-1.311 4.638-2.556 4.986-3.737v0c0.131-0.557 0.052-1.163-0.236-1.818v0c-1.54-3.497-5.653-3.773-12.338-0.829v0z" fill="#000000" data-fill-palette-color="primary"></path><path d="M27.842 180.864v0c-0.753 0.273-1.899 0.688-3.437 1.245-1.532 0.555-2.979 1.178-4.342 1.869-1.359 0.682-2.679 1.52-3.96 2.513-1.282 0.993-2.137 2.141-2.567 3.444-0.429 1.304-0.371 2.709 0.175 4.216v0c0.882 2.435 2.383 4.039 4.502 4.814 2.119 0.775 4.548 0.782 7.288 0.023v0l0.2 0.815c-3.063 0.877-5.784 0.796-8.161-0.245-2.377-1.041-4.082-2.984-5.112-5.83v0c-1.344-3.711-0.917-7.131 1.281-10.258 2.192-3.126 5.356-5.438 9.49-6.935 4.134-1.498 8.059-1.698 11.775-0.6 3.709 1.1 6.226 3.478 7.55 7.133v0c0.474 1.308 0.722 2.76 0.744 4.358 0.022 1.598 0.081 2.528 0.176 2.79v0c0.305 0.841 0.976 1.157 2.014 0.95v0l0.189 0.523-10.18 3.688-0.254-0.7c2.713-1.476 4.705-3.082 5.978-4.818 1.277-1.745 1.495-3.778 0.653-6.101v0c-0.997-2.752-2.856-4.209-5.577-4.371v0c-2.303-0.117-5.111 0.376-8.425 1.477z" fill="#000000" data-fill-palette-color="primary"></path><path d="M34.353 228.272l1.969 2.342-0.532 0.448-6.584-7.833 0.532-0.447 1.969 2.342 23.376-19.649-2.116-2.517 0.532-0.448 0.627 0.746c1.568 1.866 3.123 3.401 4.663 4.606v0l-11.688 9.824 0.179 0.213c1.467-0.55 2.953-0.64 4.458-0.269 1.496 0.369 2.74 1.145 3.733 2.325v0c1.726 2.053 2.298 3.969 1.716 5.747-0.577 1.783-2.07 3.687-4.478 5.711v0l-9.209 7.741 1.963 2.335-0.533 0.447-6.583-7.833 0.532-0.447 1.969 2.342 8.714-7.325c2.667-2.241 4.257-3.92 4.773-5.037v0c0.218-0.512 0.318-1.089 0.298-1.73-0.019-0.65-0.346-1.353-0.981-2.108-0.635-0.755-1.51-1.24-2.624-1.454-1.109-0.218-2.274-0.096-3.494 0.367v0c-2.177 0.817-4.433 2.208-6.77 4.173v0z" fill="#000000" data-fill-palette-color="primary"></path><path d="M82.085 241.778v0c3.157 1.869 4.826 3.815 5.006 5.838 0.186 2.026-0.767 4.806-2.859 8.339v0l-4.175 7.052c-0.644 1.088-0.727 1.774-0.249 2.058v0c0.98 0.58 2.534-0.562 4.662-3.428v0l0.672 0.502c-2.835 3.878-5.395 5.141-7.68 3.788v0c-0.661-0.391-1.029-0.933-1.105-1.624-0.076-0.691 0.01-1.349 0.256-1.972 0.24-0.627 0.612-1.365 1.115-2.215v0l-0.24-0.141c-1.175 1.205-2.521 1.879-4.036 2.02-1.521 0.138-3.111-0.283-4.769-1.265-1.658-0.982-2.848-2.287-3.57-3.914-0.722-1.628-0.588-3.277 0.4-4.947v0c0.739-1.248 1.712-2.073 2.919-2.474v0c2.493-0.818 6.366 0.329 11.621 3.44v0c0.291 0.172 0.596 0.353 0.915 0.541v0l1.154-1.949c1.242-2.097 1.819-3.891 1.731-5.382-0.085-1.482-1.011-2.746-2.777-3.791-1.767-1.046-3.273-1.453-4.519-1.221-1.251 0.229-2.105 0.728-2.56 1.498v0c-0.142 0.239-0.099 0.427 0.129 0.561 0.222 0.132 0.418 0.086 0.589-0.136v0c0.568-0.595 1.302-0.626 2.202-0.093v0c0.587 0.347 0.93 0.828 1.029 1.44 0.105 0.616-0.02 1.223-0.374 1.822-0.354 0.598-0.872 0.973-1.554 1.123-0.682 0.151-1.373 0.018-2.074-0.397-0.707-0.418-1.156-1.05-1.348-1.895-0.195-0.854-0.056-1.68 0.416-2.478v0c0.881-1.487 2.168-2.238 3.861-2.251 1.697-0.019 3.434 0.498 5.212 1.551zM78.964 256.761v0l1.579-2.667c-0.262-0.155-0.681-0.403-1.257-0.744-0.57-0.337-1.269-0.697-2.097-1.08-0.834-0.386-1.755-0.662-2.765-0.828v0c-2.059-0.396-3.71 0.455-4.951 2.552v0c-0.756 1.277-1.056 2.48-0.902 3.61 0.154 1.13 0.91 2.097 2.266 2.9 1.351 0.8 2.782 0.82 4.294 0.06 1.503-0.757 2.78-2.025 3.833-3.803z" fill="#000000" data-fill-palette-color="primary"></path><path d="M119.552 257.99l-5.436-1.36-3.821 15.264c-0.629 2.512-0.81 3.945-0.543 4.298v0c0.143 0.193 0.362 0.326 0.658 0.4v0c0.752 0.188 1.586-0.064 2.503-0.755 0.924-0.69 1.734-1.488 2.432-2.392v0l0.655 0.45c-0.93 1.29-1.996 2.303-3.198 3.04-1.2 0.73-2.426 0.939-3.679 0.625v0c-1.767-0.442-2.781-1.259-3.042-2.451-0.253-1.197-0.096-2.932 0.473-5.206v0l3.573-14.272-3.19-0.799 0.169-0.674 0.318 0.079c3.437 0.86 6.026-0.591 7.767-4.353v0l0.578 0.144-1.484 5.927 5.435 1.36z" fill="#000000" data-fill-palette-color="primary"></path><path d="M158.79 279.162v0c-1.104 0.067-2.024-0.342-2.761-1.227-0.73-0.885-1.15-2.236-1.26-4.054v0l-0.183-3.044c-0.158-2.618-0.785-4.434-1.881-5.45-1.096-1.015-2.755-1.456-4.977-1.322v0l-3.321 0.201 0.874 14.497 3.828-0.231 0.045 0.744-12.009 0.724-0.045-0.744 3.372-0.203-1.722-28.538-3.371 0.203-0.045-0.744 11.136-0.671c4.647-0.28 7.819 0.052 9.514 0.998v0c0.734 0.394 1.374 0.999 1.921 1.815 0.54 0.817 0.847 1.827 0.919 3.03v0c0.126 2.089-0.384 3.858-1.531 5.307-1.147 1.443-2.898 2.387-5.253 2.835v0l0.015 0.238c2.836-0.171 4.748 0.394 5.735 1.694 0.994 1.3 1.589 3.58 1.786 6.839v0l0.128 2.132c0.067 1.104 0.188 1.86 0.366 2.266 0.177 0.407 0.457 0.599 0.841 0.577 0.39-0.024 0.771-0.355 1.144-0.995 0.379-0.64 0.671-1.583 0.874-2.829v0l0.844 0.128c-0.519 3.714-2.18 5.655-4.983 5.824zM147.317 263.344c2.585-0.156 4.333-0.762 5.244-1.819 0.911-1.063 1.286-2.927 1.126-5.592-0.161-2.664-0.826-4.346-1.996-5.044-1.17-0.699-3.11-0.967-5.821-0.804v0l-2.311 0.14 0.803 13.297z" fill="#000000" data-fill-palette-color="primary"></path><path d="M202.517 262.494c-0.778 2.693-2.636 4.679-5.576 5.959-2.945 1.282-5.668 1.29-8.169 0.024-2.501-1.266-4.428-3.454-5.782-6.563-1.356-3.115-1.645-6.019-0.867-8.712 0.778-2.693 2.639-4.681 5.585-5.963 2.939-1.279 5.659-1.286 8.16-0.02 2.507 1.263 4.439 3.453 5.795 6.568 1.353 3.109 1.638 6.012 0.854 8.707zM198.692 258.461c-0.296-0.846-0.678-1.807-1.146-2.882-0.468-1.075-0.912-2.012-1.332-2.811-0.411-0.796-0.926-1.612-1.543-2.449-0.62-0.843-1.238-1.491-1.854-1.945-0.617-0.454-1.346-0.736-2.188-0.846-0.834-0.107-1.703 0.037-2.608 0.431-0.905 0.394-1.605 0.933-2.101 1.619-0.487 0.689-0.775 1.414-0.863 2.174-0.094 0.763-0.044 1.659 0.15 2.686 0.192 1.022 0.439 1.954 0.741 2.798 0.305 0.85 0.691 1.812 1.159 2.886 0.468 1.075 0.907 2.01 1.319 2.807 0.411 0.796 0.926 1.612 1.543 2.448 0.62 0.843 1.241 1.49 1.863 1.941 0.619 0.46 1.346 0.743 2.179 0.85 0.84 0.104 1.712-0.041 2.617-0.435 0.905-0.394 1.602-0.932 2.092-1.614 0.496-0.685 0.787-1.411 0.873-2.178 0.088-0.761 0.035-1.655-0.16-2.683-0.192-1.022-0.439-1.954-0.741-2.797z" fill="#000000" data-fill-palette-color="primary"></path><path d="M237.782 235.662c0.141 2.8-0.97 5.283-3.332 7.449-2.367 2.171-4.94 3.065-7.717 2.682-2.777-0.383-5.311-1.824-7.603-4.324-2.296-2.504-3.515-5.156-3.656-7.955-0.141-2.8 0.972-5.285 3.34-7.456 2.363-2.166 4.932-3.058 7.709-2.675 2.782 0.378 5.321 1.82 7.617 4.323 2.292 2.499 3.506 5.151 3.642 7.956zM232.852 233.093c-0.555-0.704-1.229-1.488-2.022-2.352-0.792-0.864-1.517-1.606-2.174-2.225-0.648-0.619-1.4-1.223-2.256-1.813-0.86-0.595-1.656-1.007-2.386-1.235-0.731-0.229-1.512-0.258-2.345-0.088-0.823 0.171-1.598 0.589-2.325 1.256-0.727 0.667-1.214 1.405-1.46 2.215-0.237 0.81-0.273 1.589-0.108 2.337 0.16 0.752 0.499 1.582 1.017 2.491 0.514 0.903 1.051 1.705 1.611 2.404 0.565 0.704 1.243 1.488 2.036 2.352 0.792 0.864 1.512 1.605 2.16 2.224 0.648 0.619 1.4 1.223 2.256 1.813 0.86 0.595 1.658 1.005 2.393 1.229 0.735 0.233 1.514 0.265 2.338 0.094 0.828-0.175 1.605-0.596 2.332-1.263 0.727-0.667 1.212-1.403 1.453-2.208 0.246-0.81 0.285-1.591 0.116-2.343-0.164-0.748-0.506-1.576-1.025-2.484-0.514-0.903-1.051-1.705-1.611-2.404z" fill="#000000" data-fill-palette-color="primary"></path><path d="M258.282 208.396l1.269-2.784 0.633 0.289-4.244 9.31-0.633-0.288 1.269-2.784-18.105-8.254-1.364 2.992-0.633-0.289 0.404-0.885c1.011-2.218 1.733-4.28 2.165-6.186v0l4.203 1.916 0.116-0.253c-1.127-1.089-1.856-2.371-2.188-3.847-0.328-1.467-0.172-2.903 0.468-4.307v0c1.525-3.344 3.928-4.64 7.208-3.886v0l0.116-0.253c-1.127-1.089-1.856-2.371-2.188-3.847-0.328-1.467-0.172-2.903 0.468-4.307v0c1.102-2.416 2.54-3.711 4.314-3.885 1.775-0.173 4.136 0.412 7.083 1.755v0l10.946 4.99 1.269-2.784 0.633 0.289-4.244 9.31-0.633-0.288 1.269-2.784-11.913-5.431c-3.2-1.459-5.406-1.904-6.619-1.336v0c-0.543 0.298-0.975 0.797-1.293 1.495v0c-1.714 3.76 1.023 7.279 8.212 10.557v0l7.62 3.473 1.265-2.775 0.633 0.289-4.145 9.093-0.633-0.288 1.265-2.775-11.913-5.431c-3.2-1.459-5.405-1.907-6.615-1.345v0c-0.543 0.298-0.975 0.797-1.293 1.495v0c-1.717 3.766 1.019 7.288 8.208 10.566v0z" fill="#000000" data-fill-palette-color="primary"></path><path d="M3.339 142.979c0-6.346 5.145-11.491 11.49-11.491 6.346 0 11.491 5.145 11.491 11.491 0 6.346-5.145 11.491-11.491 11.49-6.346 0-11.491-5.145-11.49-11.49z" fill="#000000" data-fill-palette-color="primary"></path><path d="M253.68 142.979c0-6.346 5.145-11.491 11.491-11.491 6.346 0 11.491 5.145 11.49 11.491 0 6.346-5.145 11.491-11.49 11.49-6.346 0-11.491-5.145-11.491-11.49z" fill="#000000" data-fill-palette-color="primary"></path></g><g id="text-1"></g></svg></g></svg></g></svg></g></svg></g><defs></defs></svg><rect width="280" height="280" fill="none" stroke="none" visibility="hidden"></rect></g></svg></g></svg>